Coordinates
version=1
nRows=40
nColumns=38
inDegrees=no

Units are S.I. units (second, meters, Newtons, ...)
If the header above contains a line with 'inDegrees', this indicates whether rotational values are in degrees (yes) or radians (no).

endheader
time	pelvis_tilt	pelvis_list	pelvis_rotation	pelvis_tx	pelvis_ty	pelvis_tz	hip_flexion_r	hip_adduction_r	hip_rotation_r	knee_angle_r	ankle_angle_r	subtalar_angle_r	mtp_angle_r	hip_flexion_l	hip_adduction_l	hip_rotation_l	knee_angle_l	ankle_angle_l	subtalar_angle_l	mtp_angle_l	lumbar_extension	lumbar_bending	lumbar_rotation	arm_flex_r	arm_add_r	arm_rot_r	elbow_flex_r	pro_sup_r	wrist_flex_r	wrist_dev_r	arm_flex_l	arm_add_l	arm_rot_l	elbow_flex_l	pro_sup_l	wrist_flex_l	wrist_dev_l
1.71	0.0308077	1.30479	-1.65701	0.643847	0.241089	1.03095	-0.139742	0.0177936	-0.297962	0.640921	-0.0709803	0	0	0.204625	-0.0615016	-0.264004	0.877173	-0.093481	0	0	-0.415729	0.190928	0.280675	-0.0410567	-0.503102	-0.0331975	1.66165	0.588658	0	0	0.402187	-0.442041	0.39995	0.951247	0.591044	0	0
1.72	0.0287462	1.30755	-1.65521	0.643807	0.232175	1.03013	-0.150612	0.0210762	-0.291578	0.63178	-0.0661837	0	0	0.20569	-0.0597838	-0.272715	0.820368	-0.0991806	0	0	-0.412768	0.191123	0.280126	-0.0303299	-0.508903	-0.0244494	1.65431	0.585424	0	0	0.405571	-0.439715	0.398157	0.947712	0.592111	0	0
1.73	0.0253979	1.31009	-1.65248	0.643778	0.223279	1.02917	-0.161719	0.0245944	-0.284556	0.622448	-0.0608763	0	0	0.205302	-0.0582139	-0.282203	0.762203	-0.106333	0	0	-0.410215	0.191572	0.279453	-0.0182312	-0.514995	-0.0142881	1.64625	0.583046	0	0	0.408644	-0.437505	0.395589	0.94432	0.593841	0	0
1.74	0.0198649	1.313	-1.64774	0.64379	0.214365	1.02803	-0.172257	0.0284635	-0.277437	0.613565	-0.0555878	0	0	0.204482	-0.0569447	-0.291008	0.703782	-0.114198	0	0	-0.407487	0.192628	0.278886	-0.00571307	-0.520834	-0.00391886	1.63809	0.581748	0	0	0.411593	-0.435296	0.392858	0.940991	0.595893	0	0
1.75	0.012341	1.31676	-1.64089	0.643872	0.20538	1.02666	-0.181586	0.0320982	-0.272023	0.605773	-0.0506944	0	0	0.204061	-0.0558463	-0.297642	0.646325	-0.121532	0	0	-0.403947	0.194271	0.278406	0.00641891	-0.526011	0.00569101	1.63006	0.581074	0	0	0.414451	-0.433043	0.390372	0.93776	0.597703	0	0
1.76	0.00424843	1.32128	-1.63341	0.644028	0.196357	1.02508	-0.189742	0.0354179	-0.26729	0.59883	-0.0452542	0	0	0.203955	-0.0542789	-0.30137	0.58969	-0.129661	0	0	-0.399659	0.196096	0.277701	0.018716	-0.53094	0.0153561	1.62185	0.580454	0	0	0.417091	-0.430674	0.387543	0.934362	0.598839	0	0
1.77	-0.00498773	1.32672	-1.62485	0.644278	0.187236	1.02325	-0.196072	0.0383356	-0.2635	0.593997	-0.0406415	0	0	0.204703	-0.0528515	-0.304761	0.535041	-0.137214	0	0	-0.394621	0.198165	0.278092	0.0290313	-0.535312	0.0224555	1.61482	0.581777	0	0	0.420605	-0.427858	0.38643	0.930424	0.599142	0	0
1.78	-0.0146004	1.33215	-1.61578	0.644637	0.178093	1.02123	-0.201439	0.0405376	-0.261088	0.591294	-0.0322896	0	0	0.204802	-0.0503431	-0.304405	0.480716	-0.148962	0	0	-0.388354	0.201042	0.273984	0.0472809	-0.546351	0.0442547	1.60428	0.55613	0	0	0.420045	-0.426489	0.379715	0.92736	0.600705	0	0
1.79	-0.0254784	1.33907	-1.6058	0.645052	0.168798	1.01891	-0.204138	0.0424983	-0.258694	0.59116	-0.0260333	0	0	0.207395	-0.0485913	-0.303595	0.433103	-0.157445	0	0	-0.381319	0.203705	0.273727	0.0583084	-0.551847	0.053884	1.59735	0.551304	0	0	0.422322	-0.424156	0.378057	0.923971	0.600929	0	0
1.8	-0.0360119	1.34598	-1.59642	0.645545	0.159353	1.01644	-0.206198	0.0438286	-0.256584	0.592736	-0.0193149	0	0	0.210437	-0.0468192	-0.301566	0.39168	-0.16541	0	0	-0.374176	0.206089	0.273713	0.0686856	-0.557452	0.0632674	1.59111	0.546776	0	0	0.424338	-0.421977	0.376643	0.921009	0.601051	0	0
1.81	-0.0452434	1.35233	-1.58891	0.646076	0.149756	1.01389	-0.208696	0.0445912	-0.25369	0.59481	-0.0120338	0	0	0.213293	-0.0449227	-0.299448	0.356618	-0.172219	0	0	-0.367614	0.207818	0.274055	0.0784792	-0.563179	0.0724987	1.58565	0.542659	0	0	0.425998	-0.420321	0.375551	0.919041	0.600901	0	0
1.82	-0.0511826	1.35764	-1.58536	0.646598	0.140026	1.01135	-0.212412	0.0445293	-0.249068	0.597064	-0.00391211	0	0	0.215793	-0.042534	-0.298429	0.328699	-0.177537	0	0	-0.362224	0.208364	0.274657	0.0879194	-0.568526	0.0815745	1.58063	0.538982	0	0	0.427464	-0.419122	0.374563	0.917681	0.599662	0	0
1.83	-0.0549079	1.36133	-1.58447	0.64711	0.130114	1.0089	-0.217739	0.0435384	-0.244422	0.600473	0.00203314	0	0	0.217739	-0.0408071	-0.300479	0.311141	-0.179445	0	0	-0.358794	0.207959	0.275975	0.0953961	-0.572127	0.0874203	1.57705	0.536859	0	0	0.429221	-0.418425	0.374456	0.917015	0.598523	0	0
1.84	-0.0572455	1.36389	-1.58528	0.647595	0.119968	1.00653	-0.225042	0.0423294	-0.239194	0.603114	0.0070658	0	0	0.218324	-0.0393433	-0.302593	0.300398	-0.179813	0	0	-0.356489	0.206913	0.277699	0.101264	-0.574737	0.0914397	1.5746	0.535763	0	0	0.430888	-0.417994	0.374765	0.916685	0.597553	0	0
1.85	-0.0591824	1.36586	-1.58652	0.648069	0.109584	1.00422	-0.233816	0.0411613	-0.233851	0.604734	0.0108688	0	0	0.217941	-0.0379931	-0.303367	0.295729	-0.179327	0	0	-0.354633	0.205575	0.279669	0.105371	-0.576583	0.0937756	1.57335	0.535791	0	0	0.432465	-0.417578	0.375342	0.916482	0.596874	0	0
1.86	-0.0608836	1.36727	-1.58794	0.648579	0.0989558	1.00194	-0.243964	0.0398256	-0.228856	0.605417	0.0142508	0	0	0.217155	-0.0373723	-0.305026	0.298034	-0.179019	0	0	-0.353045	0.204138	0.281567	0.108023	-0.577636	0.0946172	1.5729	0.537784	0	0	0.43385	-0.41733	0.376331	0.916046	0.596989	0	0
1.87	-0.0620098	1.36582	-1.58966	0.649128	0.0881884	0.999909	-0.258318	0.0381604	-0.224982	0.603859	0.0187308	0	0	0.21219	-0.036226	-0.305269	0.303155	-0.181408	0	0	-0.355198	0.202291	0.284629	0.109661	-0.584232	0.0979519	1.576	0.513955	0	0	0.436785	-0.417562	0.380757	0.916146	0.594724	0	0
1.88	-0.0619273	1.36561	-1.59233	0.649684	0.0771389	0.997827	-0.271317	0.035722	-0.222225	0.603153	0.0200091	0	0	0.205385	-0.0332216	-0.298564	0.306276	-0.185261	0	0	-0.355457	0.200175	0.286968	0.109103	-0.585944	0.0967237	1.5781	0.511304	0	0	0.437956	-0.417321	0.382469	0.916528	0.593911	0	0
1.89	-0.0620201	1.3647	-1.59484	0.650284	0.0658689	0.995861	-0.285147	0.0325551	-0.220613	0.602541	0.0197128	0	0	0.193131	-0.0281688	-0.283952	0.304388	-0.190617	0	0	-0.356549	0.197935	0.289601	0.107553	-0.588222	0.0953344	1.58091	0.509482	0	0	0.438839	-0.417508	0.384393	0.918333	0.593423	0	0
1.9	-0.0644103	1.36518	-1.5958	0.65093	0.0543201	0.993781	-0.296259	0.0288075	-0.218896	0.605083	0.0183305	0	0	0.182468	-0.0243068	-0.271232	0.309498	-0.194394	0	0	-0.355707	0.196132	0.292176	0.106087	-0.590295	0.0950269	1.58287	0.509361	0	0	0.437858	-0.418011	0.384691	0.921164	0.593908	0	0
1.91	-0.0658354	1.36573	-1.59825	0.651723	0.0425839	0.991749	-0.305836	0.0239387	-0.217228	0.610396	0.0162215	0	0	0.173901	-0.022144	-0.266168	0.319104	-0.199295	0	0	-0.354595	0.194121	0.29459	0.104821	-0.592338	0.0953558	1.58427	0.510231	0	0	0.435788	-0.418676	0.384056	0.924704	0.594944	0	0
1.92	-0.0519505	1.36498	-1.61641	0.652604	0.0310405	0.990225	-0.314375	0.015195	-0.213901	0.619383	0.0120016	0	0	0.167385	-0.0177298	-0.268546	0.323952	-0.212876	0	0	-0.355874	0.187969	0.296536	0.104839	-0.594349	0.0967733	1.58452	0.513231	0	0	0.434174	-0.419429	0.382619	0.928756	0.597023	0	0
1.93	-0.0176416	1.36389	-1.65392	0.65354	0.0199829	0.989337	-0.319347	0.00263235	-0.207088	0.634442	0.00898466	0	0	0.167822	-0.0112329	-0.273855	0.331601	-0.231667	0	0	-0.358785	0.17659	0.297087	0.105513	-0.595164	0.0972037	1.58338	0.510812	0	0	0.434952	-0.420357	0.382937	0.932004	0.596875	0	0
1.94	0.0250412	1.36382	-1.69822	0.654538	0.00922866	0.988828	-0.319193	-0.0103033	-0.19471	0.65589	0.000547067	0	0	0.17515	-0.00615876	-0.275908	0.354325	-0.255468	0	0	-0.360685	0.163665	0.294725	0.108055	-0.593616	0.0984617	1.57967	0.511375	0	0	0.435489	-0.420948	0.380824	0.934005	0.600369	0	0
1.95	0.0654177	1.36662	-1.73864	0.655779	-0.00157049	0.988307	-0.312244	-0.0212237	-0.177074	0.683999	-0.0111683	0	0	0.187626	-0.00312605	-0.272557	0.391358	-0.27055	0	0	-0.358814	0.153043	0.291563	0.109184	-0.591391	0.0983282	1.57555	0.513601	0	0	0.436282	-0.419866	0.379095	0.933199	0.604682	0	0
1.96	0.100239	1.37155	-1.77291	0.657225	-0.0126388	0.987805	-0.299902	-0.029937	-0.155715	0.717963	-0.0316564	0	0	0.202867	-0.00198318	-0.269723	0.43608	-0.271527	0	0	-0.353854	0.145268	0.290123	0.105587	-0.586342	0.091085	1.57175	0.53392	0	0	0.437981	-0.415722	0.377948	0.928575	0.612261	0	0
1.97	0.122452	1.37143	-1.79503	0.658748	-0.0238572	0.987944	-0.291881	-0.0372412	-0.133959	0.752454	-0.0520919	0	0	0.210362	-0.00166669	-0.269235	0.477826	-0.267063	0	0	-0.354595	0.139705	0.29023	0.102961	-0.587333	0.0883012	1.56963	0.530184	0	0	0.441106	-0.411462	0.38011	0.923609	0.615336	0	0
1.98	0.135539	1.37032	-1.80965	0.660208	-0.0352946	0.98846	-0.282704	-0.0439497	-0.111346	0.789112	-0.0808772	0	0	0.212748	-0.00183123	-0.269089	0.513153	-0.260206	0	0	-0.356504	0.13532	0.293848	0.0974652	-0.589411	0.0833945	1.56825	0.529988	0	0	0.445113	-0.405376	0.383681	0.917059	0.619584	0	0
1.99	0.144777	1.36706	-1.82104	0.661839	-0.0466553	0.989485	-0.27327	-0.0517342	-0.0907664	0.827234	-0.116925	0	0	0.208101	-0.000600609	-0.270891	0.53779	-0.254403	0	0	-0.361145	0.131191	0.298599	0.0917103	-0.593238	0.0785667	1.56726	0.530929	0	0	0.449714	-0.398479	0.387844	0.910294	0.623662	0	0
2	0.152902	1.36308	-1.83228	0.663475	-0.0578158	0.990835	-0.261568	-0.0603216	-0.0708716	0.867826	-0.158933	0	0	0.198984	0.0018985	-0.278138	0.551232	-0.251589	0	0	-0.366695	0.126804	0.302775	0.0885212	-0.59757	0.0765505	1.56479	0.530529	0	0	0.453145	-0.392617	0.391244	0.904754	0.626781	0	0
2.01	0.159795	1.36069	-1.84337	0.664972	-0.0688281	0.992178	-0.245051	-0.0680698	-0.0501482	0.911333	-0.220815	0	0	0.189251	0.00475448	-0.291235	0.556033	-0.251407	0	0	-0.370639	0.122698	0.306579	0.0877407	-0.603586	0.0791477	1.56156	0.525646	0	0	0.454575	-0.388132	0.392919	0.901103	0.631425	0	0
2.02	0.16628	1.36014	-1.85445	0.66638	-0.0797525	0.993248	-0.224283	-0.0739488	-0.0293121	0.957696	-0.25841	0	0	0.179451	0.00868747	-0.306197	0.55471	-0.24946	0	0	-0.372284	0.119292	0.308771	0.0892232	-0.608527	0.0842392	1.55764	0.524831	0	0	0.453651	-0.386459	0.394141	0.900664	0.633036	0	0
2.03	0.171946	1.36011	-1.86448	0.667782	-0.0904988	0.994133	-0.201385	-0.077605	-0.00871764	1.006	-0.287298	0	0	0.169246	0.0123149	-0.320162	0.555924	-0.240773	0	0	-0.373398	0.116502	0.309553	0.0920436	-0.612543	0.0897197	1.55428	0.524246	0	0	0.451703	-0.386802	0.395331	0.902596	0.632987	0	0
2.04	0.177562	1.35784	-1.87299	0.669166	-0.100872	0.995221	-0.180067	-0.079837	0.00983868	1.05374	-0.308742	0	0	0.157457	0.0150688	-0.334161	0.565595	-0.229436	0	0	-0.377538	0.113353	0.308344	0.0958895	-0.615001	0.0931134	1.55226	0.524273	0	0	0.45063	-0.388393	0.396777	0.905729	0.631869	0	0
2.05	0.181922	1.35367	-1.87766	0.670574	-0.110831	0.996565	-0.160305	-0.0805182	0.0248108	1.09973	-0.32193	0	0	0.144627	0.017802	-0.343932	0.573315	-0.222537	0	0	-0.384629	0.110347	0.30518	0.0990017	-0.61629	0.094087	1.55221	0.526298	0	0	0.451425	-0.390105	0.398471	0.908885	0.631222	0	0
2.06	0.183494	1.3496	-1.8771	0.672012	-0.120497	0.997948	-0.140112	-0.0791161	0.0363981	1.14395	-0.329642	0	0	0.132426	0.0194892	-0.349908	0.579965	-0.214971	0	0	-0.391982	0.108776	0.299356	0.103436	-0.618368	0.0970926	1.55314	0.517856	0	0	0.452825	-0.3937	0.402663	0.913226	0.62394	0	0
2.07	0.179275	1.34607	-1.86784	0.673547	-0.130014	0.999332	-0.120548	-0.0751592	0.0436539	1.18438	-0.323891	0	0	0.120374	0.0199312	-0.350516	0.585256	-0.209448	0	0	-0.399319	0.109604	0.292438	0.10471	-0.618295	0.0951398	1.55626	0.518051	0	0	0.455268	-0.396006	0.405676	0.916643	0.620993	0	0
2.08	0.167496	1.34339	-1.84867	0.675148	-0.139472	1.00071	-0.101698	-0.0685997	0.0464836	1.22054	-0.308337	0	0	0.108754	0.0184011	-0.347901	0.590245	-0.204065	0	0	-0.405797	0.113421	0.284202	0.105381	-0.617613	0.0912619	1.55971	0.51703	0	0	0.457986	-0.397949	0.408716	0.9194	0.618739	0	0
2.09	0.150172	1.34169	-1.82236	0.676761	-0.148891	1.00213	-0.0824792	-0.0607058	0.0452522	1.25285	-0.286905	0	0	0.0977847	0.0151162	-0.344379	0.594905	-0.198328	0	0	-0.410975	0.119517	0.275221	0.10533	-0.616498	0.08714	1.56293	0.515685	0	0	0.460912	-0.399325	0.41162	0.921013	0.616983	0	0
2.1	0.129811	1.34059	-1.7925	0.678326	-0.158283	1.00364	-0.062318	-0.0527622	0.0415173	1.2817	-0.270007	0	0	0.0870667	0.0107661	-0.342847	0.599092	-0.19284	0	0	-0.415041	0.126906	0.266084	0.104737	-0.615418	0.084195	1.56575	0.514712	0	0	0.463828	-0.400008	0.413668	0.921408	0.615376	0	0
